<?xml version="1.0" encoding="UTF-8"?>
<svg width="20px" height="24px" viewBox="0 0 20 24" version="1.1" xmlns="http://www.w3.org/2000/svg" xmlns:xlink="http://www.w3.org/1999/xlink">
    <!-- Generator: Sketch 46.2 (44496) - http://www.bohemiancoding.com/sketch -->
    <title>activate</title>
    <desc>Created with Sketch.</desc>
    <defs></defs>
    <g id="Page-1" stroke="none" stroke-width="1" fill="none" fill-rule="evenodd">
        <g id="6-VPN-Client---Connected" transform="translate(-411.000000, -245.000000)">
            <g id="Group-5" transform="translate(411.000000, 244.000000)">
                <g id="activate" transform="translate(0.000000, 1.000000)">
                    <path d="M0,1.5 C2.20868062,2.66066467 3.87534729,3.16066467 5,3 C6.12465271,2.83933533 7.95798604,1.83933533 10.5,0 C12.4100284,1.82789921 13.9100284,2.82789921 15,3 C16.0899716,3.17210079 17.7566383,2.67210079 20,1.5 L20,15 C19.6666667,16.6666667 18.3333333,18.5 16,20.5 C13.6666667,22.5 11.6666667,23.6666667 10,24 C7.66666667,23.3333333 5.5,22.1666667 3.5,20.5 C1.5,18.8333333 0.333333333,17 0,15 L0,1.5 Z" id="Path-2" fill="#43A800"></path>
                    <g id="Group-3" transform="translate(4.000000, 8.000000)" fill="#FFFFFF">
                        <path d="M4.12806895,3.17190454 L10.4591433,3.4979687 L10.4591433,3.4979687 C11.0188164,3.52679308 11.4578197,3.98898781 11.4578197,4.54940271 L11.4578197,4.54940271 L11.4578197,4.54940271 C11.4578197,5.07397557 11.0325694,5.49922589 10.5079965,5.49922589 C10.491704,5.49922589 10.4754142,5.49880668 10.4591433,5.4979687 L4.12806895,5.17190454 L4.12806895,5.17190454 C3.56839582,5.14308015 3.12939256,4.68088543 3.12939256,4.12047052 L3.12939256,4.12047052 L3.12939256,4.12047052 C3.12939256,3.59589767 3.55464288,3.17064735 4.07921573,3.17064735 C4.09550823,3.17064735 4.11179802,3.17106655 4.12806895,3.17190454 Z" id="Rectangle-9-Copy" transform="translate(7.293606, 4.334937) scale(-1, 1) rotate(45.000000) translate(-7.293606, -4.334937) "></path>
                        <path d="M1.68311135,4.65720734 L4.43782646,4.26367661 L4.43782646,4.26367661 C5.16437215,4.15988437 5.880128,4.51270898 6.24028855,5.15218209 L6.24028855,5.15218209 L6.24028855,5.15218209 C6.45477669,5.53301057 6.3199312,6.01561005 5.93910271,6.23009819 C5.84270088,6.28439311 5.73598558,6.31787112 5.62584479,6.3283714 L1.68864822,6.70372401 L1.68864822,6.70372401 C1.18877788,6.75137914 0.744920782,6.38478629 0.697265646,5.88491595 C0.694531329,5.8562348 0.693161852,5.82743989 0.693161852,5.79862869 L0.693161852,5.79862869 L0.693161852,5.79862869 C0.693161852,5.22483299 1.11508258,4.73835431 1.68311135,4.65720734 Z" id="Rectangle-9-Copy" transform="translate(3.517718, 5.476808) rotate(45.000000) translate(-3.517718, -5.476808) "></path>
                    </g>
                </g>
            </g>
        </g>
    </g>
</svg>