<?xml version="1.0" encoding="UTF-8"?>
<svg width="20px" height="24px" viewBox="0 0 20 24" version="1.1" xmlns="http://www.w3.org/2000/svg" xmlns:xlink="http://www.w3.org/1999/xlink">
    <!-- Generator: Sketch 46.2 (44496) - http://www.bohemiancoding.com/sketch -->
    <title>deactivate</title>
    <desc>Created with Sketch.</desc>
    <defs></defs>
    <g id="Page-1" stroke="none" stroke-width="1" fill="none" fill-rule="evenodd">
        <g id="5-VPN-Client---Error" transform="translate(-411.000000, -245.000000)">
            <g id="Group-5" transform="translate(411.000000, 244.000000)">
                <g id="deactivate" transform="translate(0.000000, 1.000000)">
                    <path d="M0,1.5 C2.20868062,2.66066467 3.87534729,3.16066467 5,3 C6.12465271,2.83933533 7.95798604,1.83933533 10.5,0 C12.4100284,1.82789921 13.9100284,2.82789921 15,3 C16.0899716,3.17210079 17.7566383,2.67210079 20,1.5 L20,15 C19.6666667,16.6666667 18.3333333,18.5 16,20.5 C13.6666667,22.5 11.6666667,23.6666667 10,24 C7.66666667,23.3333333 5.5,22.1666667 3.5,20.5 C1.5,18.8333333 0.333333333,17 0,15 L0,1.5 Z" id="Path-2" fill="#D01D1B"></path>
                    <g id="Group" transform="translate(5.000000, 7.000000)" fill="#FFFFFF">
                        <rect id="Rectangle-9" transform="translate(4.596194, 4.596194) rotate(45.000000) translate(-4.596194, -4.596194) " x="-0.903805922" y="3.59619408" width="11" height="2" rx="1"></rect>
                        <rect id="Rectangle-9-Copy" transform="translate(4.596194, 4.596194) scale(-1, 1) rotate(45.000000) translate(-4.596194, -4.596194) " x="-0.903805922" y="3.59619408" width="11" height="2" rx="1"></rect>
                    </g>
                </g>
            </g>
        </g>
    </g>
</svg>